<svg width="69" height="37" viewBox="0 0 69 37" fill="none" xmlns="http://www.w3.org/2000/svg">
<path d="M34.5 37C25.4243 37 16.8459 35.1752 10.3811 31.7772C3.66757 28.3163 0 23.5969 0 18.5C0 13.4031 3.66757 8.68367 10.3811 5.22279C16.8459 1.82483 25.4243 0 34.5 0C43.5757 0 52.1541 1.82483 58.6189 5.22279C65.3324 8.68367 69 13.466 69 18.5629C69 23.6599 65.3324 28.3163 58.6189 31.8401C52.1541 35.1752 43.5757 37 34.5 37ZM34.5 2.45408C25.7973 2.45408 17.6541 4.21599 11.5 7.36224C5.65676 10.4456 2.42432 14.4099 2.42432 18.5C2.42432 22.5901 5.65676 26.5544 11.5 29.6378C17.5919 32.784 25.7973 34.5459 34.5 34.5459C43.2027 34.5459 51.3459 32.784 57.5 29.6378C63.3432 26.6173 66.5757 22.6531 66.5757 18.5C66.5757 14.3469 63.3432 10.4456 57.5 7.36224C51.3459 4.21599 43.2027 2.45408 34.5 2.45408Z" fill="black"/>
<path d="M26.9813 26.7329C26.9652 26.7005 26.9571 26.6115 26.9571 26.4658C26.9571 26.32 26.9652 26.2229 26.9813 26.1743C27.0299 25.9963 27.119 25.6887 27.2485 25.2516C27.378 24.7983 27.5156 24.3288 27.6613 23.8431C27.807 23.3412 27.9446 22.8717 28.0741 22.4346C28.2036 21.9975 28.2927 21.6899 28.3413 21.5118C28.406 21.2852 28.4789 21.0261 28.5598 20.7347C28.6408 20.4271 28.6569 20.1357 28.6084 19.8605C28.3655 19.8281 28.066 19.8605 27.7099 19.9576C27.3537 20.0386 26.9975 20.1114 26.6414 20.1762C26.3014 20.2248 25.9776 20.2248 25.67 20.1762C25.3786 20.1114 25.1681 19.9172 25.0386 19.5934C25.2329 19.1887 25.5243 18.9296 25.9129 18.8163C26.3014 18.6868 26.7223 18.5977 27.1756 18.5492C27.6289 18.5006 28.0579 18.4278 28.4627 18.3306C28.8836 18.2335 29.2155 18.0149 29.4583 17.675C29.604 17.254 29.774 16.7441 29.9683 16.1451C30.1787 15.5299 30.3973 14.8904 30.6239 14.2266C30.8506 13.5629 31.0934 12.9072 31.3525 12.2596C31.6277 11.6121 31.911 11.0373 32.2024 10.5355C32.3805 10.4221 32.5262 10.414 32.6395 10.5112C32.7528 10.6083 32.8338 10.754 32.8824 10.9483C32.9471 11.1264 32.9876 11.3126 33.0038 11.5068C33.02 11.7011 33.02 11.8306 33.0038 11.8954C32.9066 12.3163 32.7366 12.7696 32.4938 13.2553C32.2672 13.7248 32.0486 14.2023 31.8381 14.688C31.6439 15.1737 31.482 15.6594 31.3525 16.1451C31.2391 16.6307 31.2391 17.0921 31.3525 17.5293H36.5735C36.5897 17.5293 36.6302 17.5859 36.6949 17.6992C36.7597 17.7964 36.8164 17.8773 36.8649 17.9421C36.9459 18.1687 36.8568 18.3225 36.5978 18.4035C36.3388 18.4844 35.9907 18.5411 35.5536 18.5735C35.1165 18.5897 34.6146 18.6058 34.048 18.622C33.4975 18.622 32.9633 18.6625 32.4452 18.7434C31.9434 18.8082 31.4901 18.9296 31.0853 19.1077C30.6806 19.2696 30.4054 19.5205 30.2597 19.8605C29.8388 20.9452 29.4502 22.038 29.0941 23.1388C28.7379 24.2235 28.3979 25.3244 28.0741 26.4415C28.0417 26.49 27.977 26.571 27.8799 26.6843C27.7827 26.7814 27.6775 26.8705 27.5642 26.9514C27.4508 27.0162 27.3375 27.0405 27.2242 27.0243C27.1271 27.0081 27.0461 26.911 26.9813 26.7329ZM36.5978 26.7329C36.1283 26.3929 35.8207 25.9639 35.675 25.4458C35.5455 24.9278 35.5293 24.3692 35.6264 23.7702C35.7236 23.155 35.8936 22.5237 36.1364 21.8761C36.3954 21.2285 36.6707 20.6052 36.9621 20.0062C37.2697 19.4072 37.5611 18.8568 37.8363 18.3549C38.1277 17.853 38.3543 17.4402 38.5162 17.1164C38.5648 17.0193 38.6781 16.7845 38.8562 16.4122C39.0505 16.0398 39.2528 15.6351 39.4633 15.198C39.6738 14.7609 39.868 14.3561 40.0461 13.9838C40.2404 13.5952 40.3618 13.3524 40.4104 13.2553C40.459 13.1743 40.5237 13.0205 40.6047 12.7939C40.7018 12.551 40.807 12.292 40.9203 12.0168C41.0337 11.7416 41.1551 11.4825 41.2846 11.2397C41.4303 10.9807 41.576 10.7945 41.7217 10.6812C41.8836 10.5678 42.0374 10.5517 42.1831 10.6326C42.345 10.7135 42.4988 10.9564 42.6445 11.3611C42.5798 11.523 42.4179 11.8468 42.1588 12.3325C41.916 12.8182 41.6246 13.401 41.2846 14.0809C40.9446 14.7609 40.5642 15.5137 40.1433 16.3393C39.7385 17.165 39.3419 17.9987 38.9533 18.8406C38.5648 19.6824 38.2005 20.5081 37.8606 21.3176C37.5206 22.1108 37.2373 22.8393 37.0106 23.5031C36.8002 24.1507 36.6707 24.693 36.6221 25.1301C36.5897 25.5511 36.6707 25.8101 36.8649 25.9072C37.0916 26.0205 37.383 26.0691 37.7391 26.0529C38.1115 26.0205 38.492 25.972 38.8805 25.9072C39.269 25.8425 39.6495 25.7777 40.0218 25.7129C40.3942 25.632 40.718 25.5996 40.9932 25.6158C41.058 25.7615 41.0094 25.9072 40.8475 26.0529C40.6856 26.1824 40.459 26.3039 40.1675 26.4172C39.8761 26.5143 39.5362 26.6034 39.1476 26.6843C38.7753 26.7491 38.411 26.7976 38.0548 26.83C37.7149 26.8624 37.4073 26.8705 37.132 26.8543C36.873 26.8381 36.6949 26.7976 36.5978 26.7329Z" fill="black"/>
</svg>
